<svg xmlns="http://www.w3.org/2000/svg" xmlns:xlink="http://www.w3.org/1999/xlink" xmlns:serif="http://www.serif.com/" viewBox="0 0 32 40" version="1.1" xml:space="preserve" style="" x="0px" y="0px" fill-rule="evenodd" clip-rule="evenodd" stroke-linejoin="round" stroke-miterlimit="2"><g transform="matrix(3.86268,0,0,3.86268,-4991.3,-62.1385)"><path d="M1297.44,17.537L1296.42,16.513C1296.37,16.463 1296.29,16.463 1296.24,16.513L1295.21,17.537C1295.21,17.537 1293.77,17.537 1293.77,17.537C1293.69,17.537 1293.64,17.595 1293.64,17.666L1293.64,19.114C1293.64,19.114 1292.61,20.138 1292.61,20.138C1292.56,20.188 1292.56,20.27 1292.61,20.321L1293.64,21.344C1293.64,21.344 1293.64,22.792 1293.64,22.792C1293.64,22.863 1293.69,22.921 1293.77,22.921L1295.21,22.921C1295.21,22.921 1296.24,23.945 1296.24,23.945C1296.29,23.996 1296.37,23.996 1296.42,23.945L1297.44,22.921C1297.44,22.921 1298.89,22.921 1298.89,22.921C1298.96,22.921 1299.02,22.863 1299.02,22.792L1299.02,21.344C1299.02,21.344 1300.05,20.321 1300.05,20.321C1300.1,20.27 1300.1,20.188 1300.05,20.138L1299.02,19.114C1299.02,19.114 1299.02,17.666 1299.02,17.666C1299.02,17.595 1298.96,17.537 1298.89,17.537L1297.44,17.537ZM1297.3,17.758C1297.32,17.782 1297.36,17.796 1297.39,17.796L1298.76,17.796C1298.76,17.796 1298.76,19.168 1298.76,19.168C1298.76,19.202 1298.78,19.235 1298.8,19.259L1299.77,20.229C1299.77,20.229 1298.8,21.199 1298.8,21.199C1298.78,21.223 1298.76,21.256 1298.76,21.291L1298.76,22.663C1298.76,22.663 1297.39,22.663 1297.39,22.663C1297.36,22.663 1297.32,22.676 1297.3,22.7L1296.33,23.67C1296.33,23.67 1295.36,22.7 1295.36,22.7C1295.34,22.676 1295.3,22.663 1295.27,22.663L1293.9,22.663C1293.9,22.663 1293.9,21.291 1293.9,21.291C1293.9,21.256 1293.88,21.223 1293.86,21.199L1292.89,20.229C1292.89,20.229 1293.86,19.259 1293.86,19.259C1293.88,19.235 1293.9,19.202 1293.9,19.168L1293.9,17.796C1293.9,17.796 1295.27,17.796 1295.27,17.796C1295.3,17.796 1295.34,17.782 1295.36,17.758L1296.33,16.788C1296.33,16.788 1297.3,17.758 1297.3,17.758Z"/></g><text x="0" y="47" fill="#000000" font-size="5px" font-weight="bold" font-family="'Helvetica Neue', Helvetica, Arial-Unicode, Arial, Sans-serif">Created by rendicon</text><text x="0" y="52" fill="#000000" font-size="5px" font-weight="bold" font-family="'Helvetica Neue', Helvetica, Arial-Unicode, Arial, Sans-serif">from the Noun Project</text></svg>